<svg id="Capa_1" data-name="Capa 1" xmlns="http://www.w3.org/2000/svg" viewBox="0 0 1921.17 1082.08"><defs><style>.cls-1{fill:#010101;}.cls-2{fill:#fff;}</style></defs><rect class="cls-1" x="0.59" y="-0.73" width="1920" height="1080" transform="translate(-0.58 2.81) rotate(-0.06)"/><path class="cls-2" d="M324.93,600.49l-.13-118.92,10.57,0,.13,118.93Z" transform="translate(0 1.77)"/><path class="cls-2" d="M442.14,602.38c-19.74,0-34.51-5.09-44.47-15.18s-14.8-25.64-14.82-46.31c0-13.37,2.15-24.72,6.65-33.74a44.83,44.83,0,0,1,20.18-20.7q13.51-7,33.11-7A87.66,87.66,0,0,1,465,482,49.84,49.84,0,0,1,481.66,490a34.57,34.57,0,0,1,10.43,13.2c2.5,5.28,3.59,11.5,3.6,18.65H483.56a34.54,34.54,0,0,0-3.12-15.23,26.66,26.66,0,0,0-8.56-9.94,38.61,38.61,0,0,0-13.07-5.43,68.63,68.63,0,0,0-16.17-1.69,70.54,70.54,0,0,0-19.74,2.67A35.77,35.77,0,0,0,408,500.91a38.55,38.55,0,0,0-9.47,15.4c-2.17,6.22-3.25,13.68-3.24,22.54v3.58q0,17.72,5.62,28.44a34.39,34.39,0,0,0,15.88,15.68c6.84,3.26,15.08,4.81,24.56,4.8,10.42,0,18.66-1.42,24.87-4.23a25.52,25.52,0,0,0,13.36-13.07q4.19-8.87,4.17-22.39v-2.95l-44.93,0V538.34l57.05-.06.07,61.56h-9.64l-1.57-16.32a33.23,33.23,0,0,1-11,10.73,52.48,52.48,0,0,1-14.91,5.93A60.19,60.19,0,0,1,442.14,602.38Z" transform="translate(0 1.77)"/><path class="cls-2" d="M553,600.24l-.13-118.92,14,0L567,600.23Z" transform="translate(0 1.77)"/><path class="cls-2" d="M653.56,600.13l-.11-104.93-41,0,0-13.83,98.25-.11v13.84l-41.19,0,.11,104.94Z" transform="translate(0 1.77)"/><path class="cls-2" d="M732.69,600.05l46.66-119,23.16,0,47.08,118.87-19.43,0L819.09,571.5l-57.21.07L751,600Zm35.08-43.72,45.4-.05-13.88-36.21c-.47-1.09-1.09-2.49-1.71-4.2s-1.41-3.88-2.19-6.06-1.56-4.5-2.34-6.83-1.4-4.51-2.18-6.37h-1.09q-1.15,3.5-2.79,7.93c-1.08,2.95-2,5.91-3.1,8.71-.93,2.8-1.86,5.13-2.48,6.84Z" transform="translate(0 1.77)"/><path class="cls-2" d="M891.1,599.87,891,481l19.9,0L911,582.44l59.38-.06,0,17.25-79.28.09Z" transform="translate(0 1.77)"/><path class="cls-2" d="M1013.44,599.74l-.13-118.92,22.23,0,0,48.51,56-.06-.06-48.51,22.23,0,.13,118.92-22.23,0-.05-51.3-56,.06.06,51.3Z" transform="translate(0 1.77)"/><path class="cls-2" d="M1219.42,601.54c-12.44,0-23.32-2.15-32.34-6.65a45.92,45.92,0,0,1-20.86-20.5c-4.82-9.16-7.32-20.67-7.34-34.35,0-14,2.46-25.49,7.27-34.51A46,46,0,0,1,1187,485.29c9-4.51,19.89-6.7,32.33-6.72,12.74,0,23.63,2.16,32.65,6.65a46.78,46.78,0,0,1,20.85,20.19c4.83,9,7.33,20.51,7.35,34.5,0,13.68-2.46,25.19-7.27,34.37a46.7,46.7,0,0,1-20.81,20.54C1243.05,599.34,1232.17,601.53,1219.42,601.54Zm0-20.21a41.93,41.93,0,0,0,15.23-2.5,29,29,0,0,0,11-7.48,32.87,32.87,0,0,0,6.83-12.13,54.65,54.65,0,0,0,2.31-16.79v-4.67a54.52,54.52,0,0,0-2.35-16.78,34.93,34.93,0,0,0-6.85-12.28,29,29,0,0,0-11-7.45,47.85,47.85,0,0,0-30.47,0,28.87,28.87,0,0,0-11,7.47,32.18,32.18,0,0,0-6.67,12.29,54.88,54.88,0,0,0-2.16,16.79v4.66a60.16,60.16,0,0,0,2.2,16.79,32.61,32.61,0,0,0,6.7,12.12,29,29,0,0,0,11,7.45A45.28,45.28,0,0,0,1219.4,581.33Z" transform="translate(0 1.77)"/><path class="cls-2" d="M1377.83,601.37q-16.56,0-28.45-5.1a38.31,38.31,0,0,1-18.21-15.68c-4.21-7-6.39-15.85-6.4-26.27l-.08-73.84,27.36,0,.08,73.07q0,12.35,6.55,19.11c4.35,4.5,10.73,6.83,18.81,6.82,8.24,0,14.77-2.35,19.12-6.86,4.5-4.52,6.67-10.89,6.66-19.13l-.08-73.06,27.52,0,.08,73.84c0,10.57-2.16,19.28-6.35,26.28a39.48,39.48,0,0,1-18.32,15.72C1398.35,599.64,1388.87,601.36,1377.83,601.37Z" transform="translate(0 1.77)"/><path class="cls-2" d="M1530.18,601.2a101,101,0,0,1-21.15-2,53.87,53.87,0,0,1-17.42-6.51,33,33,0,0,1-11.82-11.8c-3-5-4.37-10.87-4.38-18v-1.55a3.37,3.37,0,0,1,.16-1.4l30,0a3.72,3.72,0,0,1-.16,1.24c0,.47-.15.93-.15,1.25q0,5.6,2.81,8.85a16.12,16.12,0,0,0,8.09,4.81,46.55,46.55,0,0,0,12.12,1.39c2.49,0,5-.16,7.15-.32a22.28,22.28,0,0,0,5.91-1.25,21.47,21.47,0,0,0,4.66-2.18,8,8,0,0,0,3-3.11,9.32,9.32,0,0,0,.93-4.2,8.24,8.24,0,0,0-3.12-6.53,26.28,26.28,0,0,0-8.08-4.34c-3.43-1.09-7.31-2.17-11.51-3.25-4.36-1.09-8.71-2.17-13.37-3.25a97.7,97.7,0,0,1-13.38-4.34,49.08,49.08,0,0,1-11.51-6.52,28.16,28.16,0,0,1-8.09-9.94,32,32,0,0,1-3.13-14.45,31.61,31.61,0,0,1,4-16.17,32.88,32.88,0,0,1,11-11.21A51.77,51.77,0,0,1,1508.9,480a87,87,0,0,1,19.59-2,82.93,82.93,0,0,1,19.12,2,51.41,51.41,0,0,1,15.86,6.51,33.55,33.55,0,0,1,10.9,11c2.65,4.5,3.89,9.78,4.06,16v2l-29.85,0v-1.25a12,12,0,0,0-2.18-7,14.37,14.37,0,0,0-6.54-4.81,27.68,27.68,0,0,0-10.73-1.86,43.08,43.08,0,0,0-10.88,1.26,15.92,15.92,0,0,0-6.68,3.43,7,7,0,0,0-2.32,5.44,7.23,7.23,0,0,0,3.11,6.21,30.82,30.82,0,0,0,8.25,4.19q5.13,1.64,11.66,3.26c4.2.92,8.71,2,13.22,3.09a93.59,93.59,0,0,1,13.21,4.18,60.7,60.7,0,0,1,11.67,6.36,27.88,27.88,0,0,1,11.37,23.47c0,9.48-2.15,17.1-6.66,22.85A38.18,38.18,0,0,1,1556.75,597C1548.67,599.94,1540,601.19,1530.18,601.2Z" transform="translate(0 1.77)"/><path class="cls-2" d="M1626.09,599.08,1626,479.84l101.67-.11,0,27.36-65.61.07,0,18.19,58.77-.06,0,26.27-58.77.06,0,19.9,66.85-.07,0,27.36-102.91.11Z" transform="translate(0 1.77)"/><path class="cls-2" d="M230.88,600.44l-54.57.06-.13-118.77,54.57-.06a47,47,0,0,1,47,46.89l0,24.72A47.14,47.14,0,0,1,230.88,600.44ZM185.79,591l45.08,0a37.75,37.75,0,0,0,37.58-37.66l0-24.72A37.74,37.74,0,0,0,230.76,491l-45.08,0Z" transform="translate(0 1.77)"/></svg>